<svg width="420" height="260" viewBox="0 0 420 260" fill="none" xmlns="http://www.w3.org/2000/svg" role="img" aria-labelledby="title desc">
  <title id="title">Housekeeping hotel illustration</title>
  <desc id="desc">Clean room with bed, sparkle, and housekeeping cart.</desc>
  <rect width="420" height="260" rx="36" fill="#DCFCE7"/>
  <rect x="72" y="98" width="188" height="82" rx="18" fill="#166534"/>
  <rect x="92" y="78" width="72" height="44" rx="14" fill="#BBF7D0"/>
  <rect x="172" y="78" width="72" height="44" rx="14" fill="#86EFAC"/>
  <rect x="52" y="166" width="238" height="36" rx="14" fill="#14532D"/>
  <rect x="286" y="95" width="54" height="86" rx="16" fill="#22C55E"/>
  <rect x="300" y="73" width="26" height="36" rx="13" fill="#F8FAFC"/>
  <circle cx="300" cy="197" r="12" fill="#0F172A"/>
  <circle cx="340" cy="197" r="12" fill="#0F172A"/>
  <path d="M333 58l8 16 18 3-13 12 3 18-16-9-16 9 3-18-13-12 18-3 8-16Z" fill="#FACC15"/>
  <path d="M95 54l5 10 11 2-8 8 2 11-10-5-10 5 2-11-8-8 11-2 5-10Z" fill="#34D399"/>
</svg>
